<svg xmlns="http://www.w3.org/2000/svg" xmlns:xlink="http://www.w3.org/1999/xlink" width="142" zoomAndPan="magnify" viewBox="0 0 106.5 106.499998" height="142" preserveAspectRatio="xMidYMid meet" version="1.0"><defs><clipPath id="7831b13546"><path d="M 68 0 L 105.253906 0 L 105.253906 38 L 68 38 Z M 68 0 " clip-rule="nonzero"/></clipPath><clipPath id="6937845d22"><path d="M 68 68 L 105.253906 68 L 105.253906 105.253906 L 68 105.253906 Z M 68 68 " clip-rule="nonzero"/></clipPath><clipPath id="15a2dbb212"><path d="M 0 68 L 38 68 L 38 105.253906 L 0 105.253906 Z M 0 68 " clip-rule="nonzero"/></clipPath><clipPath id="06b52fb418"><path d="M 16.878906 1.082031 L 21.210938 1.082031 L 21.210938 5.414062 L 16.878906 5.414062 Z M 16.878906 1.082031 " clip-rule="nonzero"/></clipPath><clipPath id="3b9b45c1b9"><path d="M 19.046875 1.082031 C 17.847656 1.082031 16.878906 2.050781 16.878906 3.246094 C 16.878906 4.441406 17.847656 5.414062 19.046875 5.414062 C 20.242188 5.414062 21.210938 4.441406 21.210938 3.246094 C 21.210938 2.050781 20.242188 1.082031 19.046875 1.082031 Z M 19.046875 1.082031 " clip-rule="nonzero"/></clipPath><clipPath id="79655ebcac"><path d="M 0.878906 0.0820312 L 5.210938 0.0820312 L 5.210938 4.414062 L 0.878906 4.414062 Z M 0.878906 0.0820312 " clip-rule="nonzero"/></clipPath><clipPath id="690249e9a4"><path d="M 3.046875 0.0820312 C 1.847656 0.0820312 0.878906 1.050781 0.878906 2.246094 C 0.878906 3.441406 1.847656 4.414062 3.046875 4.414062 C 4.242188 4.414062 5.210938 3.441406 5.210938 2.246094 C 5.210938 1.050781 4.242188 0.0820312 3.046875 0.0820312 Z M 3.046875 0.0820312 " clip-rule="nonzero"/></clipPath><clipPath id="41a816814e"><rect x="0" width="6" y="0" height="5"/></clipPath></defs><g clip-path="url(#7831b13546)"><path fill="#ffae00" d="M 102.015625 37.425781 C 101.5625 37.425781 101.128906 37.339844 100.707031 37.164062 C 100.289062 36.992188 99.921875 36.742188 99.601562 36.421875 C 99.277344 36.101562 99.03125 35.734375 98.859375 35.3125 C 98.683594 34.894531 98.597656 34.460938 98.597656 34.003906 L 98.597656 15.953125 C 98.597656 15.359375 98.539062 14.765625 98.421875 14.179688 C 98.304688 13.59375 98.132812 13.027344 97.902344 12.476562 C 97.671875 11.925781 97.394531 11.402344 97.0625 10.902344 C 96.730469 10.40625 96.351562 9.949219 95.929688 9.527344 C 95.507812 9.105469 95.046875 8.726562 94.550781 8.394531 C 94.054688 8.0625 93.53125 7.78125 92.980469 7.554688 C 92.429688 7.324219 91.863281 7.152344 91.277344 7.035156 C 90.691406 6.917969 90.097656 6.855469 89.503906 6.855469 L 71.449219 6.855469 C 70.996094 6.855469 70.558594 6.769531 70.140625 6.597656 C 69.71875 6.421875 69.351562 6.175781 69.027344 5.855469 C 68.707031 5.535156 68.460938 5.164062 68.289062 4.746094 C 68.113281 4.328125 68.027344 3.890625 68.027344 3.4375 C 68.027344 2.984375 68.113281 2.546875 68.289062 2.128906 C 68.460938 1.707031 68.707031 1.339844 69.027344 1.019531 C 69.351562 0.699219 69.71875 0.449219 70.140625 0.277344 C 70.558594 0.105469 70.996094 0.015625 71.449219 0.0195312 L 89.503906 0.0195312 C 90.023438 0.0195312 90.542969 0.0429688 91.0625 0.0976562 C 91.582031 0.148438 92.097656 0.226562 92.609375 0.328125 C 93.121094 0.429688 93.625 0.558594 94.125 0.707031 C 94.625 0.859375 95.117188 1.035156 95.597656 1.238281 C 96.078125 1.4375 96.550781 1.660156 97.011719 1.90625 C 97.46875 2.152344 97.917969 2.421875 98.351562 2.710938 C 98.785156 3 99.203125 3.3125 99.605469 3.640625 C 100.007812 3.972656 100.394531 4.324219 100.765625 4.691406 C 101.132812 5.0625 101.484375 5.445312 101.8125 5.851562 C 102.144531 6.253906 102.457031 6.671875 102.746094 7.105469 C 103.035156 7.539062 103.304688 7.988281 103.550781 8.445312 C 103.796875 8.90625 104.019531 9.378906 104.21875 9.859375 C 104.417969 10.339844 104.59375 10.832031 104.746094 11.332031 C 104.898438 11.832031 105.023438 12.335938 105.128906 12.847656 C 105.230469 13.359375 105.304688 13.875 105.359375 14.394531 C 105.410156 14.914062 105.4375 15.433594 105.4375 15.953125 L 105.4375 34.003906 C 105.4375 34.460938 105.351562 34.894531 105.175781 35.3125 C 105.003906 35.734375 104.753906 36.101562 104.433594 36.421875 C 104.113281 36.742188 103.746094 36.992188 103.324219 37.164062 C 102.90625 37.339844 102.472656 37.425781 102.015625 37.425781 Z M 102.015625 37.425781 " fill-opacity="1" fill-rule="nonzero"/></g><g clip-path="url(#6937845d22)"><path fill="#ffae00" d="M 89.503906 105.464844 L 71.449219 105.464844 C 70.996094 105.464844 70.558594 105.378906 70.140625 105.207031 C 69.722656 105.03125 69.351562 104.785156 69.03125 104.464844 C 68.710938 104.144531 68.464844 103.773438 68.289062 103.355469 C 68.117188 102.9375 68.027344 102.5 68.027344 102.046875 C 68.027344 101.59375 68.117188 101.15625 68.289062 100.738281 C 68.464844 100.320312 68.710938 99.949219 69.03125 99.628906 C 69.351562 99.308594 69.722656 99.0625 70.140625 98.886719 C 70.558594 98.714844 70.996094 98.628906 71.449219 98.628906 L 89.503906 98.628906 C 90.097656 98.625 90.691406 98.566406 91.277344 98.449219 C 91.859375 98.332031 92.429688 98.160156 92.980469 97.929688 C 93.53125 97.703125 94.054688 97.421875 94.550781 97.089844 C 95.046875 96.757812 95.507812 96.378906 95.929688 95.957031 C 96.351562 95.535156 96.726562 95.078125 97.058594 94.582031 C 97.390625 94.085938 97.671875 93.5625 97.902344 93.011719 C 98.128906 92.457031 98.304688 91.890625 98.421875 91.304688 C 98.539062 90.71875 98.597656 90.128906 98.597656 89.53125 L 98.597656 71.476562 C 98.597656 71.023438 98.683594 70.589844 98.859375 70.167969 C 99.03125 69.75 99.277344 69.378906 99.601562 69.058594 C 99.921875 68.738281 100.289062 68.492188 100.707031 68.320312 C 101.128906 68.144531 101.5625 68.058594 102.015625 68.058594 C 102.472656 68.058594 102.90625 68.144531 103.324219 68.320312 C 103.746094 68.492188 104.113281 68.738281 104.433594 69.058594 C 104.753906 69.378906 105.003906 69.75 105.175781 70.167969 C 105.351562 70.589844 105.4375 71.023438 105.4375 71.476562 L 105.4375 89.53125 C 105.4375 90.054688 105.410156 90.574219 105.359375 91.09375 C 105.304688 91.613281 105.230469 92.128906 105.128906 92.640625 C 105.023438 93.152344 104.898438 93.65625 104.746094 94.15625 C 104.59375 94.652344 104.417969 95.144531 104.21875 95.625 C 104.019531 96.109375 103.796875 96.578125 103.550781 97.039062 C 103.304688 97.5 103.035156 97.945312 102.746094 98.378906 C 102.457031 98.8125 102.144531 99.230469 101.8125 99.636719 C 101.484375 100.039062 101.132812 100.425781 100.765625 100.792969 C 100.394531 101.164062 100.007812 101.511719 99.605469 101.84375 C 99.203125 102.175781 98.785156 102.484375 98.351562 102.773438 C 97.917969 103.066406 97.46875 103.332031 97.011719 103.578125 C 96.550781 103.824219 96.078125 104.046875 95.597656 104.25 C 95.117188 104.449219 94.625 104.625 94.125 104.777344 C 93.625 104.925781 93.121094 105.054688 92.609375 105.15625 C 92.097656 105.257812 91.582031 105.335938 91.0625 105.386719 C 90.542969 105.4375 90.023438 105.464844 89.503906 105.464844 Z M 89.503906 105.464844 " fill-opacity="1" fill-rule="nonzero"/></g><path fill="#ffae00" d="M 3.40625 37.425781 C 2.953125 37.425781 2.519531 37.339844 2.097656 37.164062 C 1.679688 36.992188 1.308594 36.742188 0.988281 36.421875 C 0.667969 36.101562 0.421875 35.734375 0.25 35.3125 C 0.0742188 34.894531 -0.0117188 34.460938 -0.0117188 34.003906 L -0.0117188 15.953125 C -0.0117188 15.433594 0.015625 14.914062 0.0664062 14.394531 C 0.117188 13.875 0.195312 13.359375 0.296875 12.847656 C 0.398438 12.335938 0.527344 11.832031 0.679688 11.332031 C 0.828125 10.832031 1.007812 10.339844 1.207031 9.859375 C 1.40625 9.378906 1.628906 8.90625 1.875 8.445312 C 2.121094 7.988281 2.390625 7.539062 2.679688 7.105469 C 2.96875 6.671875 3.28125 6.253906 3.609375 5.851562 C 3.941406 5.445312 4.292969 5.0625 4.660156 4.691406 C 5.027344 4.324219 5.414062 3.972656 5.820312 3.640625 C 6.222656 3.3125 6.640625 3 7.074219 2.710938 C 7.507812 2.421875 7.953125 2.152344 8.414062 1.90625 C 8.875 1.660156 9.34375 1.4375 9.828125 1.238281 C 10.308594 1.035156 10.800781 0.859375 11.296875 0.707031 C 11.796875 0.558594 12.304688 0.429688 12.816406 0.328125 C 13.328125 0.226562 13.84375 0.148438 14.359375 0.0976562 C 14.878906 0.0429688 15.402344 0.0195312 15.921875 0.0195312 L 33.976562 0.0195312 C 34.429688 0.0195312 34.867188 0.105469 35.285156 0.277344 C 35.703125 0.453125 36.074219 0.699219 36.394531 1.019531 C 36.714844 1.339844 36.960938 1.710938 37.136719 2.128906 C 37.308594 2.546875 37.394531 2.984375 37.394531 3.4375 C 37.394531 3.890625 37.308594 4.328125 37.136719 4.746094 C 36.960938 5.164062 36.714844 5.535156 36.394531 5.855469 C 36.074219 6.175781 35.703125 6.421875 35.285156 6.59375 C 34.867188 6.769531 34.429688 6.855469 33.976562 6.855469 L 15.921875 6.855469 C 15.324219 6.855469 14.734375 6.917969 14.148438 7.035156 C 13.5625 7.152344 12.992188 7.324219 12.441406 7.554688 C 11.886719 7.785156 11.363281 8.066406 10.867188 8.398438 C 10.371094 8.730469 9.910156 9.109375 9.488281 9.53125 C 9.066406 9.953125 8.691406 10.414062 8.359375 10.910156 C 8.027344 11.410156 7.746094 11.933594 7.519531 12.484375 C 7.289062 13.039062 7.117188 13.609375 7 14.195312 C 6.882812 14.78125 6.828125 15.371094 6.828125 15.96875 L 6.828125 34.019531 C 6.824219 34.472656 6.738281 34.90625 6.5625 35.324219 C 6.386719 35.742188 6.140625 36.109375 5.820312 36.429688 C 5.5 36.746094 5.128906 36.992188 4.710938 37.167969 C 4.292969 37.339844 3.859375 37.425781 3.40625 37.425781 Z M 3.40625 37.425781 " fill-opacity="1" fill-rule="nonzero"/><g clip-path="url(#15a2dbb212)"><path fill="#ffae00" d="M 33.976562 105.464844 L 15.921875 105.464844 C 15.402344 105.464844 14.878906 105.4375 14.359375 105.386719 C 13.84375 105.335938 13.328125 105.257812 12.816406 105.15625 C 12.304688 105.054688 11.796875 104.925781 11.300781 104.777344 C 10.800781 104.625 10.308594 104.449219 9.828125 104.25 C 9.34375 104.046875 8.875 103.824219 8.414062 103.578125 C 7.953125 103.332031 7.507812 103.066406 7.074219 102.773438 C 6.640625 102.484375 6.222656 102.175781 5.820312 101.84375 C 5.414062 101.511719 5.03125 101.164062 4.660156 100.792969 C 4.292969 100.425781 3.941406 100.039062 3.609375 99.636719 C 3.28125 99.230469 2.96875 98.8125 2.679688 98.378906 C 2.390625 97.945312 2.121094 97.5 1.875 97.039062 C 1.628906 96.578125 1.40625 96.109375 1.207031 95.625 C 1.007812 95.144531 0.832031 94.652344 0.679688 94.15625 C 0.527344 93.65625 0.398438 93.152344 0.296875 92.640625 C 0.195312 92.128906 0.117188 91.613281 0.0664062 91.09375 C 0.015625 90.574219 -0.0117188 90.054688 -0.0117188 89.53125 L -0.0117188 71.476562 C -0.0117188 71.023438 0.0742188 70.589844 0.25 70.167969 C 0.421875 69.75 0.667969 69.378906 0.988281 69.058594 C 1.308594 68.738281 1.679688 68.492188 2.097656 68.320312 C 2.519531 68.144531 2.953125 68.058594 3.40625 68.058594 C 3.859375 68.058594 4.296875 68.144531 4.714844 68.320312 C 5.132812 68.492188 5.503906 68.738281 5.824219 69.058594 C 6.144531 69.378906 6.394531 69.75 6.566406 70.167969 C 6.738281 70.589844 6.828125 71.023438 6.828125 71.476562 L 6.828125 89.53125 C 6.828125 90.128906 6.886719 90.71875 7.003906 91.304688 C 7.121094 91.890625 7.292969 92.457031 7.523438 93.011719 C 7.753906 93.5625 8.03125 94.085938 8.363281 94.582031 C 8.695312 95.078125 9.074219 95.535156 9.496094 95.957031 C 9.917969 96.378906 10.378906 96.757812 10.875 97.089844 C 11.371094 97.421875 11.894531 97.703125 12.445312 97.929688 C 12.996094 98.160156 13.5625 98.332031 14.148438 98.449219 C 14.734375 98.566406 15.324219 98.625 15.921875 98.628906 L 33.976562 98.628906 C 34.429688 98.628906 34.867188 98.714844 35.285156 98.886719 C 35.703125 99.0625 36.074219 99.308594 36.394531 99.628906 C 36.714844 99.949219 36.960938 100.320312 37.136719 100.738281 C 37.308594 101.15625 37.394531 101.59375 37.394531 102.046875 C 37.394531 102.5 37.308594 102.9375 37.136719 103.355469 C 36.960938 103.773438 36.714844 104.144531 36.394531 104.464844 C 36.074219 104.785156 35.703125 105.03125 35.285156 105.207031 C 34.867188 105.378906 34.429688 105.464844 33.976562 105.464844 Z M 33.976562 105.464844 " fill-opacity="1" fill-rule="nonzero"/></g><g clip-path="url(#06b52fb418)"><g clip-path="url(#3b9b45c1b9)"><g transform="matrix(1, 0, 0, 1, 16, 1)"><g clip-path="url(#41a816814e)"><g clip-path="url(#79655ebcac)"><g clip-path="url(#690249e9a4)"><path fill="#ffae00" d="M 0.878906 0.0820312 L 5.210938 0.0820312 L 5.210938 4.414062 L 0.878906 4.414062 Z M 0.878906 0.0820312 " fill-opacity="1" fill-rule="nonzero"/></g></g></g></g></g></g></svg>