<svg xmlns="http://www.w3.org/2000/svg" xmlns:xlink="http://www.w3.org/1999/xlink" width="172" zoomAndPan="magnify" viewBox="0 0 129 102.749999" height="137" preserveAspectRatio="xMidYMid meet" version="1.0"><defs><clipPath id="2099853c47"><path d="M 0.15625 47 L 128.09375 47 L 128.09375 102.5 L 0.15625 102.5 Z M 0.15625 47 " clip-rule="nonzero"/></clipPath><clipPath id="add4a6ab11"><path d="M 46.757812 48.507812 L 51.097656 48.507812 L 51.097656 52.847656 L 46.757812 52.847656 Z M 46.757812 48.507812 " clip-rule="nonzero"/></clipPath><clipPath id="73fb813eb0"><path d="M 48.925781 48.507812 C 47.726562 48.507812 46.757812 49.480469 46.757812 50.679688 C 46.757812 51.875 47.726562 52.847656 48.925781 52.847656 C 50.125 52.847656 51.097656 51.875 51.097656 50.679688 C 51.097656 49.480469 50.125 48.507812 48.925781 48.507812 Z M 48.925781 48.507812 " clip-rule="nonzero"/></clipPath><clipPath id="627f3ccfad"><path d="M 0.757812 0.507812 L 5.097656 0.507812 L 5.097656 4.847656 L 0.757812 4.847656 Z M 0.757812 0.507812 " clip-rule="nonzero"/></clipPath><clipPath id="d6bcfd68b1"><path d="M 2.925781 0.507812 C 1.726562 0.507812 0.757812 1.480469 0.757812 2.679688 C 0.757812 3.875 1.726562 4.847656 2.925781 4.847656 C 4.125 4.847656 5.097656 3.875 5.097656 2.679688 C 5.097656 1.480469 4.125 0.507812 2.925781 0.507812 Z M 2.925781 0.507812 " clip-rule="nonzero"/></clipPath><clipPath id="4f17c110a1"><rect x="0" width="6" y="0" height="5"/></clipPath></defs><g clip-path="url(#2099853c47)"><path fill="#ffae00" d="M 127.144531 47.394531 L 111.777344 47.675781 C 111.058594 47.6875 110.644531 48.5 111.058594 49.089844 L 113.433594 52.488281 C 113.46875 52.535156 113.457031 52.597656 113.410156 52.628906 L 62.425781 88.851562 C 62.359375 88.894531 62.269531 88.851562 62.269531 88.769531 L 62.269531 61.167969 C 62.269531 60.804688 62.074219 60.46875 61.761719 60.28125 C 61.449219 60.097656 61.0625 60.089844 60.742188 60.261719 L 0.726562 92.894531 C 0.488281 93.027344 0.308594 93.25 0.230469 93.511719 C 0.152344 93.773438 0.183594 94.058594 0.3125 94.296875 L 2.878906 99.011719 C 3.152344 99.515625 3.777344 99.699219 4.28125 99.425781 L 54.6875 72.015625 C 54.753906 71.980469 54.832031 72.027344 54.832031 72.105469 L 54.832031 101.289062 C 54.832031 101.585938 54.925781 101.886719 55.136719 102.09375 C 55.34375 102.296875 55.605469 102.394531 55.867188 102.394531 C 56.078125 102.394531 56.285156 102.328125 56.464844 102.203125 L 117.671875 58.71875 C 117.71875 58.6875 117.78125 58.699219 117.8125 58.746094 L 120.894531 63.148438 C 121.304688 63.742188 122.210938 63.628906 122.46875 62.957031 L 128 48.621094 C 128.230469 48.023438 127.78125 47.382812 127.144531 47.394531 " fill-opacity="1" fill-rule="nonzero"/></g><path fill="#ffffff" d="M 38.683594 28.703125 L 38.683594 69.140625 C 38.683594 69.179688 38.664062 69.210938 38.632812 69.230469 L 24.070312 77.148438 C 24.003906 77.1875 23.921875 77.136719 23.921875 77.0625 L 23.921875 28.703125 C 23.921875 28.644531 23.96875 28.601562 24.023438 28.601562 L 38.582031 28.601562 C 38.636719 28.601562 38.683594 28.644531 38.683594 28.703125 " fill-opacity="1" fill-rule="nonzero"/><path fill="#ffffff" d="M 97.71875 0.132812 L 97.71875 60.433594 C 97.71875 60.464844 97.703125 60.492188 97.675781 60.511719 L 83.113281 70.855469 C 83.046875 70.902344 82.957031 70.855469 82.957031 70.773438 L 82.957031 0.132812 C 82.957031 0.078125 83 0.0351562 83.054688 0.0351562 L 97.617188 0.0351562 C 97.671875 0.0351562 97.71875 0.078125 97.71875 0.132812 " fill-opacity="1" fill-rule="nonzero"/><path fill="#ffffff" d="M 77.074219 36.957031 L 77.074219 75.097656 C 77.074219 75.128906 77.058594 75.160156 77.035156 75.179688 L 65.113281 83.648438 C 65.046875 83.695312 64.953125 83.648438 64.953125 83.566406 L 64.953125 61.167969 C 64.953125 59.867188 64.253906 58.640625 63.136719 57.976562 C 62.898438 57.835938 62.648438 57.71875 62.386719 57.636719 C 62.347656 57.625 62.320312 57.589844 62.320312 57.546875 L 62.320312 36.957031 C 62.320312 36.902344 62.363281 36.855469 62.417969 36.855469 L 76.976562 36.855469 C 77.03125 36.855469 77.074219 36.902344 77.074219 36.957031 " fill-opacity="1" fill-rule="nonzero"/><path fill="#ffae00" d="M 57.878906 12.046875 L 57.878906 58.707031 C 57.878906 58.742188 57.859375 58.777344 57.828125 58.792969 L 43.269531 66.710938 C 43.203125 66.746094 43.121094 66.699219 43.121094 66.621094 L 43.121094 12.046875 C 43.121094 11.988281 43.167969 11.945312 43.222656 11.945312 L 57.777344 11.945312 C 57.835938 11.945312 57.878906 11.988281 57.878906 12.046875 " fill-opacity="1" fill-rule="nonzero"/><g clip-path="url(#add4a6ab11)"><g clip-path="url(#73fb813eb0)"><g transform="matrix(1, 0, 0, 1, 46, 48)"><g clip-path="url(#4f17c110a1)"><g clip-path="url(#627f3ccfad)"><g clip-path="url(#d6bcfd68b1)"><path fill="#ffae00" d="M 0.757812 0.507812 L 5.097656 0.507812 L 5.097656 4.847656 L 0.757812 4.847656 Z M 0.757812 0.507812 " fill-opacity="1" fill-rule="nonzero"/></g></g></g></g></g></g></svg>