<svg xmlns="http://www.w3.org/2000/svg" xmlns:xlink="http://www.w3.org/1999/xlink" width="98" zoomAndPan="magnify" viewBox="0 0 73.5 77.249999" height="103" preserveAspectRatio="xMidYMid meet" version="1.0"><defs><clipPath id="c9611e5c71"><path d="M 0.105469 0 L 19 0 L 19 37 L 0.105469 37 Z M 0.105469 0 " clip-rule="nonzero"/></clipPath><clipPath id="4a3f7ff753"><path d="M 25 56 L 72.898438 56 L 72.898438 75.765625 L 25 75.765625 Z M 25 56 " clip-rule="nonzero"/></clipPath><clipPath id="f630b780b8"><path d="M 7 0 L 64 0 L 64 75.765625 L 7 75.765625 Z M 7 0 " clip-rule="nonzero"/></clipPath><clipPath id="42b986eef7"><path d="M 24.78125 48.703125 L 29.3125 48.703125 L 29.3125 53.234375 L 24.78125 53.234375 Z M 24.78125 48.703125 " clip-rule="nonzero"/></clipPath><clipPath id="315a2a5d8d"><path d="M 27.046875 48.703125 C 25.796875 48.703125 24.78125 49.71875 24.78125 50.96875 C 24.78125 52.21875 25.796875 53.234375 27.046875 53.234375 C 28.296875 53.234375 29.3125 52.21875 29.3125 50.96875 C 29.3125 49.71875 28.296875 48.703125 27.046875 48.703125 Z M 27.046875 48.703125 " clip-rule="nonzero"/></clipPath><clipPath id="73a3839bc3"><path d="M 0.78125 0.703125 L 5.3125 0.703125 L 5.3125 5.234375 L 0.78125 5.234375 Z M 0.78125 0.703125 " clip-rule="nonzero"/></clipPath><clipPath id="b2f79154e5"><path d="M 3.046875 0.703125 C 1.796875 0.703125 0.78125 1.71875 0.78125 2.96875 C 0.78125 4.21875 1.796875 5.234375 3.046875 5.234375 C 4.296875 5.234375 5.3125 4.21875 5.3125 2.96875 C 5.3125 1.71875 4.296875 0.703125 3.046875 0.703125 Z M 3.046875 0.703125 " clip-rule="nonzero"/></clipPath><clipPath id="f395dee8bb"><rect x="0" width="6" y="0" height="6"/></clipPath></defs><g clip-path="url(#c9611e5c71)"><path fill="#ffffff" d="M 16.402344 36.207031 L 1.921875 36.207031 C 1.679688 36.207031 1.449219 36.160156 1.230469 36.066406 C 1.007812 35.976562 0.8125 35.84375 0.640625 35.675781 C 0.472656 35.503906 0.339844 35.308594 0.25 35.089844 C 0.15625 34.867188 0.109375 34.636719 0.109375 34.394531 L 0.109375 9.050781 C 0.109375 8.457031 0.167969 7.867188 0.285156 7.285156 C 0.402344 6.703125 0.574219 6.136719 0.800781 5.585938 C 1.027344 5.039062 1.304688 4.515625 1.636719 4.023438 C 1.96875 3.527344 2.34375 3.070312 2.761719 2.652344 C 3.183594 2.230469 3.640625 1.855469 4.132812 1.527344 C 4.628906 1.195312 5.148438 0.917969 5.699219 0.6875 C 6.246094 0.460938 6.8125 0.289062 7.398438 0.175781 C 7.980469 0.0585938 8.566406 0 9.164062 0 C 9.757812 0 10.34375 0.0585938 10.929688 0.175781 C 11.511719 0.289062 12.078125 0.460938 12.625 0.6875 C 13.175781 0.917969 13.695312 1.195312 14.191406 1.527344 C 14.683594 1.855469 15.144531 2.230469 15.5625 2.652344 C 15.984375 3.070312 16.359375 3.527344 16.6875 4.023438 C 17.019531 4.515625 17.296875 5.039062 17.523438 5.585938 C 17.753906 6.136719 17.925781 6.703125 18.039062 7.285156 C 18.15625 7.867188 18.214844 8.457031 18.214844 9.050781 L 18.214844 34.394531 C 18.214844 34.636719 18.167969 34.867188 18.078125 35.089844 C 17.984375 35.308594 17.855469 35.503906 17.683594 35.675781 C 17.515625 35.84375 17.320312 35.976562 17.097656 36.066406 C 16.875 36.160156 16.644531 36.207031 16.402344 36.207031 Z M 3.730469 32.585938 L 14.59375 32.585938 L 14.59375 9.050781 C 14.59375 8.695312 14.558594 8.339844 14.488281 7.992188 C 14.417969 7.640625 14.316406 7.300781 14.179688 6.972656 C 14.042969 6.644531 13.875 6.332031 13.679688 6.035156 C 13.480469 5.738281 13.253906 5.464844 13.003906 5.210938 C 12.75 4.960938 12.476562 4.734375 12.179688 4.535156 C 11.882812 4.335938 11.570312 4.171875 11.242188 4.035156 C 10.910156 3.898438 10.570312 3.792969 10.222656 3.726562 C 9.871094 3.65625 9.519531 3.621094 9.164062 3.621094 C 8.804688 3.621094 8.453125 3.65625 8.101562 3.726562 C 7.753906 3.792969 7.414062 3.898438 7.085938 4.035156 C 6.753906 4.171875 6.441406 4.335938 6.144531 4.535156 C 5.847656 4.734375 5.574219 4.960938 5.324219 5.210938 C 5.070312 5.464844 4.84375 5.738281 4.648438 6.035156 C 4.449219 6.332031 4.28125 6.644531 4.144531 6.972656 C 4.007812 7.300781 3.90625 7.640625 3.835938 7.992188 C 3.765625 8.339844 3.730469 8.695312 3.730469 9.050781 Z M 3.730469 32.585938 " fill-opacity="1" fill-rule="nonzero"/></g><g clip-path="url(#4a3f7ff753)"><path fill="#ffffff" d="M 70.710938 56.117188 L 34.507812 56.117188 C 34.265625 56.117188 34.035156 56.164062 33.816406 56.257812 C 33.59375 56.351562 33.398438 56.480469 33.226562 56.648438 C 33.058594 56.820312 32.925781 57.015625 32.835938 57.238281 C 32.742188 57.457031 32.695312 57.6875 32.695312 57.929688 L 32.695312 65.167969 C 32.691406 65.992188 32.554688 66.789062 32.28125 67.566406 C 32.007812 68.339844 31.613281 69.050781 31.097656 69.691406 C 30.582031 70.332031 29.976562 70.871094 29.28125 71.304688 C 28.582031 71.742188 27.832031 72.050781 27.03125 72.230469 C 26.546875 72.335938 26.175781 72.59375 25.90625 73.007812 L 25.761719 73.226562 C 25.574219 73.5 25.46875 73.800781 25.453125 74.136719 C 25.4375 74.46875 25.507812 74.78125 25.671875 75.070312 C 25.828125 75.367188 26.046875 75.601562 26.332031 75.777344 C 26.621094 75.949219 26.929688 76.035156 27.265625 76.03125 L 59.851562 76.03125 C 60.808594 76.035156 61.757812 75.925781 62.691406 75.707031 C 63.386719 75.546875 64.0625 75.328125 64.71875 75.054688 C 65.375 74.78125 66.003906 74.457031 66.605469 74.078125 C 67.207031 73.695312 67.773438 73.269531 68.304688 72.796875 C 68.832031 72.320312 69.320312 71.804688 69.761719 71.25 C 70.207031 70.691406 70.597656 70.101562 70.941406 69.480469 C 71.289062 68.855469 71.578125 68.210938 71.8125 67.539062 C 72.046875 66.867188 72.222656 66.179688 72.34375 65.480469 C 72.460938 64.777344 72.523438 64.070312 72.523438 63.359375 L 72.523438 57.929688 C 72.519531 57.6875 72.476562 57.457031 72.382812 57.238281 C 72.289062 57.015625 72.160156 56.820312 71.992188 56.648438 C 71.820312 56.480469 71.625 56.351562 71.402344 56.257812 C 71.183594 56.164062 70.953125 56.117188 70.710938 56.117188 Z M 68.902344 63.359375 C 68.898438 64.242188 68.773438 65.101562 68.519531 65.945312 C 68.265625 66.792969 67.898438 67.582031 67.417969 68.320312 C 66.9375 69.058594 66.359375 69.710938 65.6875 70.28125 C 65.015625 70.851562 64.277344 71.3125 63.472656 71.667969 C 62.3125 72.164062 61.109375 72.410156 59.851562 72.410156 L 33.527344 72.410156 C 34.421875 71.417969 35.109375 70.296875 35.589844 69.046875 C 36.070312 67.800781 36.3125 66.507812 36.316406 65.167969 L 36.316406 59.738281 L 68.902344 59.738281 Z M 68.902344 63.359375 " fill-opacity="1" fill-rule="nonzero"/></g><g clip-path="url(#f630b780b8)"><path fill="#ffffff" d="M 36.316406 59.738281 L 63.472656 59.738281 L 63.472656 12.671875 C 63.46875 11.839844 63.386719 11.015625 63.226562 10.199219 C 63.0625 9.386719 62.820312 8.59375 62.503906 7.824219 C 62.183594 7.054688 61.792969 6.328125 61.332031 5.636719 C 60.867188 4.945312 60.34375 4.304688 59.753906 3.714844 C 59.167969 3.128906 58.527344 2.601562 57.835938 2.140625 C 57.144531 1.675781 56.414062 1.285156 55.644531 0.96875 C 54.878906 0.648438 54.085938 0.410156 53.269531 0.246094 C 52.453125 0.0820312 51.628906 0 50.800781 0 L 9.164062 0 C 8.921875 0 8.691406 0.046875 8.46875 0.136719 C 8.25 0.230469 8.050781 0.359375 7.882812 0.53125 C 7.710938 0.699219 7.582031 0.894531 7.488281 1.117188 C 7.398438 1.339844 7.351562 1.570312 7.351562 1.808594 C 7.351562 2.050781 7.398438 2.28125 7.488281 2.503906 C 7.582031 2.726562 7.710938 2.921875 7.882812 3.089844 C 8.050781 3.261719 8.25 3.390625 8.46875 3.484375 C 8.691406 3.574219 8.921875 3.621094 9.164062 3.621094 C 9.519531 3.621094 9.871094 3.65625 10.222656 3.726562 C 10.570312 3.796875 10.910156 3.902344 11.238281 4.039062 C 11.566406 4.175781 11.878906 4.34375 12.175781 4.539062 C 12.472656 4.738281 12.746094 4.964844 13 5.214844 C 13.25 5.46875 13.476562 5.742188 13.671875 6.039062 C 13.871094 6.335938 14.039062 6.648438 14.175781 6.976562 C 14.3125 7.304688 14.417969 7.644531 14.488281 7.992188 C 14.558594 8.34375 14.59375 8.695312 14.59375 9.050781 L 14.59375 65.167969 C 14.59375 65.882812 14.664062 66.589844 14.804688 67.289062 C 14.941406 67.988281 15.148438 68.667969 15.421875 69.324219 C 15.695312 69.984375 16.03125 70.609375 16.425781 71.203125 C 16.824219 71.792969 17.273438 72.34375 17.777344 72.847656 C 18.28125 73.351562 18.828125 73.800781 19.421875 74.199219 C 20.015625 74.59375 20.640625 74.929688 21.300781 75.203125 C 21.957031 75.476562 22.636719 75.683594 23.335938 75.820312 C 24.035156 75.960938 24.742188 76.03125 25.457031 76.03125 L 61.660156 76.03125 C 62.039062 76.027344 62.382812 75.921875 62.691406 75.707031 C 63.210938 75.347656 63.472656 74.851562 63.472656 74.222656 L 63.472656 71.667969 C 62.3125 72.164062 61.109375 72.410156 59.851562 72.410156 L 33.527344 72.410156 C 34.421875 71.417969 35.109375 70.296875 35.589844 69.046875 C 36.070312 67.800781 36.3125 66.507812 36.316406 65.167969 Z M 25.457031 18.101562 L 41.746094 18.101562 C 41.988281 18.101562 42.21875 18.148438 42.441406 18.242188 C 42.660156 18.332031 42.859375 18.464844 43.027344 18.632812 C 43.199219 18.800781 43.328125 19 43.421875 19.21875 C 43.511719 19.441406 43.558594 19.671875 43.558594 19.914062 C 43.558594 20.152344 43.511719 20.382812 43.421875 20.605469 C 43.328125 20.828125 43.199219 21.023438 43.027344 21.191406 C 42.859375 21.363281 42.660156 21.492188 42.441406 21.585938 C 42.21875 21.675781 41.988281 21.722656 41.746094 21.722656 L 25.457031 21.722656 C 25.214844 21.722656 24.984375 21.675781 24.761719 21.585938 C 24.539062 21.492188 24.34375 21.363281 24.175781 21.191406 C 24.003906 21.023438 23.875 20.828125 23.78125 20.605469 C 23.691406 20.382812 23.644531 20.152344 23.644531 19.914062 C 23.644531 19.671875 23.691406 19.441406 23.78125 19.21875 C 23.875 19 24.003906 18.800781 24.175781 18.632812 C 24.34375 18.464844 24.539062 18.332031 24.761719 18.242188 C 24.984375 18.148438 25.214844 18.101562 25.457031 18.101562 Z M 25.457031 28.964844 L 52.609375 28.964844 C 52.847656 28.964844 53.082031 29.011719 53.300781 29.101562 C 53.523438 29.195312 53.71875 29.324219 53.890625 29.496094 C 54.058594 29.664062 54.191406 29.859375 54.28125 30.082031 C 54.375 30.304688 54.417969 30.535156 54.417969 30.773438 C 54.417969 31.015625 54.375 31.246094 54.28125 31.46875 C 54.191406 31.6875 54.058594 31.886719 53.890625 32.054688 C 53.71875 32.222656 53.523438 32.355469 53.300781 32.445312 C 53.082031 32.539062 52.847656 32.585938 52.609375 32.585938 L 25.457031 32.585938 C 25.214844 32.585938 24.984375 32.539062 24.761719 32.445312 C 24.539062 32.355469 24.34375 32.222656 24.175781 32.054688 C 24.003906 31.886719 23.875 31.6875 23.78125 31.46875 C 23.691406 31.246094 23.644531 31.015625 23.644531 30.773438 C 23.644531 30.535156 23.691406 30.304688 23.78125 30.082031 C 23.875 29.859375 24.003906 29.664062 24.175781 29.496094 C 24.34375 29.324219 24.539062 29.195312 24.761719 29.101562 C 24.984375 29.011719 25.214844 28.964844 25.457031 28.964844 Z M 25.457031 43.445312 C 25.214844 43.445312 24.984375 43.402344 24.761719 43.308594 C 24.539062 43.21875 24.34375 43.085938 24.175781 42.917969 C 24.003906 42.746094 23.875 42.550781 23.78125 42.328125 C 23.691406 42.105469 23.644531 41.875 23.644531 41.636719 C 23.644531 41.394531 23.691406 41.164062 23.78125 40.945312 C 23.875 40.722656 24.003906 40.527344 24.175781 40.355469 C 24.34375 40.1875 24.539062 40.054688 24.761719 39.964844 C 24.984375 39.871094 25.214844 39.824219 25.457031 39.824219 L 52.609375 39.824219 C 52.847656 39.824219 53.082031 39.871094 53.300781 39.964844 C 53.523438 40.054688 53.71875 40.1875 53.890625 40.355469 C 54.058594 40.527344 54.191406 40.722656 54.28125 40.945312 C 54.375 41.164062 54.417969 41.394531 54.417969 41.636719 C 54.417969 41.875 54.375 42.105469 54.28125 42.328125 C 54.191406 42.550781 54.058594 42.746094 53.890625 42.917969 C 53.71875 43.085938 53.523438 43.21875 53.300781 43.308594 C 53.082031 43.402344 52.847656 43.445312 52.609375 43.445312 Z M 25.457031 43.445312 " fill-opacity="1" fill-rule="nonzero"/></g><g clip-path="url(#42b986eef7)"><g clip-path="url(#315a2a5d8d)"><g transform="matrix(1, 0, 0, 1, 24, 48)"><g clip-path="url(#f395dee8bb)"><g clip-path="url(#73a3839bc3)"><g clip-path="url(#b2f79154e5)"><path fill="#ffffff" d="M 0.78125 0.703125 L 5.3125 0.703125 L 5.3125 5.234375 L 0.78125 5.234375 Z M 0.78125 0.703125 " fill-opacity="1" fill-rule="nonzero"/></g></g></g></g></g></g></svg>